<svg width="256" height="256" xmlns="http://www.w3.org/2000/svg">
    <path d=" M 112.24 14.02 C 113.24 14.01 115.22 13.99 116.22 13.98 C 158.28 59.98 200.02 106.27 242.01 152.33 C 242.00 153.87 241.99 155.41 241.97 156.96 C 198.69 109.34 155.35 61.79 112.24 14.02 Z"/>
    <path d=" M 48.10 14.17 C 68.04 14.42 87.98 14.10 107.92 14.05 C 152.73 63.07 197.17 112.43 242.00 161.43 C 241.94 183.59 241.98 205.76 241.98 227.92 C 177.53 156.51 112.62 85.52 48.10 14.17 Z"/>
    <path d=" M 14.30 30.21 C 17.80 34.80 21.96 38.82 25.87 43.04 C 86.31 109.23 146.48 175.67 206.76 242.00 C 186.87 242.03 166.98 241.90 147.10 242.00 C 102.75 193.20 58.48 144.34 14.10 95.57 C 14.10 73.79 14.46 52.00 14.30 30.21 Z"/>
    <path d=" M 13.94 100.13 C 28.67 115.72 42.75 131.92 57.34 147.63 C 85.78 179.16 114.49 210.47 142.93 242.00 C 141.27 242.02 139.62 242.01 137.96 242.00 C 96.98 197.33 56.44 152.24 15.58 107.46 C 13.45 105.62 14.13 102.60 13.94 100.13 Z"/>
</svg>
