<svg width="256" height="256" xmlns="http://www.w3.org/2000/svg">
    <path d=" M 18.12 19.67 C 20.35 18.97 22.65 18.44 25.00 18.55 C 37.92 18.64 50.83 18.77 63.75 18.83 C 63.86 23.81 63.83 28.80 63.82 33.78 C 77.84 33.87 91.85 33.88 105.87 33.78 C 105.89 28.70 105.87 23.61 105.91 18.52 C 120.97 18.58 136.02 18.54 151.08 18.54 C 151.09 23.63 151.08 28.72 151.11 33.82 C 165.12 33.83 179.13 33.92 193.13 33.77 C 193.22 28.78 193.20 23.79 193.30 18.80 C 207.94 18.95 222.59 18.32 237.23 18.77 C 238.82 20.82 237.65 23.64 237.84 26.01 C 237.69 38.25 237.78 50.48 237.72 62.72 C 232.75 62.77 227.79 62.76 222.82 62.80 C 222.75 76.79 222.78 90.78 222.81 104.77 C 227.97 104.90 233.13 104.87 238.29 104.82 C 238.24 119.91 238.31 135.00 238.29 150.09 C 233.09 150.19 227.89 149.76 222.70 150.25 C 222.86 164.11 222.76 177.98 222.77 191.85 C 227.76 191.92 232.75 191.90 237.74 191.92 C 237.86 206.64 237.68 221.36 237.80 236.09 C 234.42 237.66 230.65 237.34 227.03 237.25 C 215.41 237.50 203.84 236.26 192.21 236.77 C 192.21 231.84 192.23 226.91 192.22 221.98 C 178.21 221.55 164.18 221.70 150.16 221.89 C 150.07 227.04 150.10 232.18 150.09 237.33 C 135.08 237.24 120.06 237.33 105.05 237.29 C 105.13 232.09 105.50 226.86 104.73 221.68 C 90.77 221.88 76.81 221.63 62.86 221.84 C 62.83 226.84 62.86 231.84 62.82 236.84 C 47.93 236.24 33.00 238.19 18.16 236.87 C 17.60 234.27 17.81 231.60 17.80 228.96 C 17.95 216.98 17.58 204.98 18.08 192.99 C 23.11 192.87 28.13 192.92 33.16 192.84 C 33.19 178.89 33.19 164.93 33.20 150.98 C 28.02 150.70 22.83 150.81 17.65 150.77 C 17.76 135.79 17.69 120.80 17.70 105.82 C 22.83 105.85 27.97 105.89 33.11 105.76 C 33.32 91.75 33.16 77.74 33.21 63.73 C 28.24 63.65 23.27 63.68 18.29 63.71 C 18.07 49.03 18.43 34.35 18.12 19.67 Z"/>
</svg>
