<svg width="256" height="256" xmlns="http://www.w3.org/2000/svg">
    <path d=" M 16.06 15.45 C 34.72 15.41 53.39 15.41 72.05 15.45 C 72.09 34.11 72.05 52.77 72.07 71.43 C 53.40 71.45 34.72 71.47 16.05 71.42 C 16.14 52.76 16.13 34.11 16.06 15.45 Z"></path>
    <path d=" M 128.76 15.45 C 147.40 15.41 166.04 15.40 184.68 15.45 C 184.57 34.12 184.58 52.78 184.66 71.45 C 166.02 71.44 147.38 71.44 128.74 71.45 C 128.76 52.78 128.74 34.11 128.76 15.45 Z"></path>
    <path d=" M 72.39 71.86 C 91.00 71.89 109.60 71.85 128.21 71.88 C 128.30 90.54 128.22 109.19 128.25 127.84 C 109.63 127.82 91.01 127.83 72.39 127.84 C 72.39 109.18 72.38 90.52 72.39 71.86 Z"></path>
    <path d=" M 184.95 71.89 C 203.59 71.86 222.24 71.86 240.88 71.88 C 240.92 90.53 240.88 109.18 240.91 127.82 C 222.25 127.80 203.60 127.91 184.95 127.77 C 184.93 109.14 184.92 90.51 184.95 71.89 Z"></path>
    <path d=" M 16.11 128.17 C 34.76 128.20 53.41 128.09 72.06 128.23 C 72.06 146.86 72.08 165.49 72.05 184.13 C 53.41 184.14 34.76 184.15 16.11 184.12 C 16.10 165.47 16.10 146.82 16.11 128.17 Z"></path>
    <path d=" M 128.77 128.16 C 147.37 128.20 165.98 128.10 184.58 128.22 C 184.66 146.86 184.57 165.51 184.63 184.16 C 166.01 184.11 147.39 184.16 128.77 184.13 C 128.73 165.47 128.74 146.81 128.77 128.16 Z"></path>
    <path d=" M 72.36 240.55 C 72.45 221.89 72.33 203.22 72.42 184.56 C 91.02 184.56 109.63 184.54 128.23 184.57 C 128.29 203.22 128.21 221.88 128.27 240.53 C 109.64 240.61 91.00 240.58 72.36 240.55 Z"></path>
    <path d=" M 184.94 184.57 C 203.59 184.55 222.25 184.53 240.91 184.58 C 240.91 203.24 240.85 221.89 240.95 240.55 C 222.28 240.60 203.61 240.58 184.95 240.56 C 184.92 221.90 184.94 203.23 184.94 184.57 Z"></path>
</svg>
