<svg width="256" height="256" xmlns="http://www.w3.org/2000/svg">
    <g fill="#ff0000">
        <path d=" M 95.10 104.29 C 99.44 103.68 103.80 103.39 108.17 103.10 C 123.77 101.66 139.51 102.32 155.07 103.95 C 162.78 105.22 170.80 104.01 178.19 106.97 C 178.52 107.46 179.16 108.42 179.48 108.91 C 179.01 113.55 177.75 118.07 176.40 122.52 C 172.15 123.32 167.88 122.42 163.83 121.15 C 160.67 120.30 157.37 120.49 154.14 120.32 C 133.26 118.98 112.31 119.41 91.45 120.63 C 87.32 121.60 83.24 122.76 79.00 123.16 C 78.18 122.92 77.36 122.69 76.54 122.47 C 74.99 117.74 73.12 112.79 73.74 107.74 C 80.21 103.79 87.96 105.28 95.10 104.29 Z"></path>
        <path d=" M 93.10 123.06 C 108.61 120.73 124.34 121.62 139.96 121.55 C 150.19 121.64 160.60 122.44 170.23 126.14 C 171.26 126.64 173.25 127.55 172.24 129.05 C 168.60 134.57 164.73 140.18 159.39 144.22 C 155.32 147.29 150.32 148.56 145.67 150.46 C 140.45 151.52 135.29 149.50 130.07 149.56 C 122.09 148.89 114.25 151.70 106.28 150.39 C 102.84 148.36 98.73 147.81 95.41 145.55 C 88.82 141.18 83.89 134.68 80.10 127.83 C 83.87 125.01 88.70 124.38 93.10 123.06 Z"></path>
        <path d=" M 87.72 226.83 C 90.97 220.51 95.08 214.28 101.18 210.38 C 103.14 210.28 104.90 211.81 106.86 212.13 C 117.21 212.79 127.65 215.18 137.97 212.91 C 142.81 212.82 147.53 211.99 152.09 210.35 C 158.16 215.52 163.95 221.95 165.85 229.87 C 154.54 234.59 141.92 233.96 129.96 234.89 C 134.40 235.16 143.29 235.71 147.74 235.99 C 134.32 235.69 120.87 236.14 107.47 235.12 L 123.07 234.00 C 118.04 233.83 113.04 234.40 108.02 234.14 C 101.05 233.27 93.90 232.92 87.39 229.96 C 87.47 228.92 87.18 227.78 87.72 226.83 Z"></path>
    </g>
    <g fill="#00ff00">
        <path d=" M 109.99 154.44 C 120.76 152.38 131.91 152.94 142.76 154.07 C 139.61 156.53 136.13 159.09 135.14 163.21 C 133.35 170.34 135.84 177.64 137.95 184.42 C 137.86 184.88 137.67 185.79 137.58 186.25 C 138.44 187.36 138.92 188.57 139.03 189.88 C 137.59 190.91 135.75 190.70 134.08 190.78 C 128.71 190.72 123.34 190.79 117.97 190.76 C 116.30 190.85 114.75 190.21 113.26 189.57 C 113.69 188.90 114.57 187.57 115.00 186.90 C 115.64 178.58 120.48 170.18 117.14 161.86 C 116.10 158.31 112.95 156.26 109.99 154.44 Z"></path>
        <path d=" M 112.48 193.39 C 121.53 194.83 130.84 194.74 139.91 193.52 C 141.80 193.41 143.54 195.02 143.78 196.86 C 144.36 200.79 145.50 204.60 146.73 208.37 C 146.26 208.78 145.31 209.61 144.83 210.02 C 137.17 210.37 129.52 212.05 121.84 211.03 C 116.83 210.31 111.72 210.38 106.76 209.32 C 105.95 204.97 109.46 200.90 108.74 196.40 C 109.89 195.31 110.92 193.93 112.48 193.39 Z"></path>
    </g>
</svg>
