<svg width="256" height="256" xmlns="http://www.w3.org/2000/svg">
    <g fill="#ff0000"><path d=" M 129.00 45.13 C 161.95 77.28 193.35 110.97 225.58 143.83 C 218.95 149.46 211.21 153.50 203.56 157.54 C 184.04 168.25 164.80 179.45 145.40 190.38 C 139.97 193.61 134.24 196.35 128.99 199.87 L 128.99 199.31 C 129.01 188.40 128.99 177.49 129.00 166.58 C 129.00 166.09 129.01 165.10 129.01 164.60 C 128.99 143.84 129.00 123.07 129.00 102.30 C 129.01 101.86 129.01 100.97 129.01 100.52 C 129.03 96.93 129.04 93.34 128.83 89.76 C 128.84 89.34 128.85 88.51 128.86 88.09 C 129.10 84.34 129.00 80.58 128.99 76.83 C 128.99 76.36 128.99 75.42 128.99 74.94 C 129.00 71.63 129.10 68.31 128.89 65.01 L 128.79 64.04 C 128.79 63.60 128.79 62.72 128.79 62.28 L 128.96 62.44 C 129.03 58.77 128.99 55.09 128.99 51.42 C 128.99 50.97 128.99 50.07 128.99 49.62 C 129.00 48.50 129.00 46.25 129.00 45.13 Z"></path></g>
    <g fill="#0000ff"><path d=" M 124.79 44.89 C 125.27 44.50 126.24 43.72 126.72 43.33 C 127.48 43.93 128.24 44.53 129.00 45.13 C 129.00 46.25 129.00 48.50 128.99 49.62 C 127.63 48.01 126.22 46.44 124.79 44.89 Z"></path><path d=" M 119.17 50.93 C 122.01 50.10 124.68 51.83 127.19 52.90 C 127.64 52.53 128.54 51.79 128.99 51.42 C 128.99 55.09 129.03 58.77 128.96 62.44 L 128.79 62.28 C 125.87 58.22 120.94 56.77 117.02 53.98 C 117.69 52.93 118.40 51.91 119.17 50.93 Z"></path><path d=" M 113.15 58.03 C 117.85 60.45 122.10 63.70 126.97 65.79 L 127.78 65.24 L 128.22 62.94 C 128.36 63.22 128.65 63.77 128.79 64.04 L 128.89 65.01 C 129.10 68.31 129.00 71.63 128.99 74.94 C 123.84 68.67 115.12 67.36 109.16 62.07 C 110.37 60.61 111.72 59.28 113.15 58.03 Z"></path><path d=" M 101.48 70.87 C 102.47 69.43 103.54 68.05 104.66 66.71 C 112.87 69.66 119.45 75.68 127.49 78.98 C 127.87 78.44 128.61 77.37 128.99 76.83 C 129.00 80.58 129.10 84.34 128.86 88.09 L 128.43 88.03 C 127.10 85.21 124.49 83.46 121.70 82.29 C 114.53 79.30 108.27 74.60 101.48 70.87 Z"></path><path d=" M 93.58 78.70 C 94.80 77.24 95.91 75.49 97.79 74.83 C 105.60 79.50 113.30 84.37 121.33 88.65 C 123.33 89.67 125.37 90.75 127.63 91.07 C 127.93 90.74 128.53 90.09 128.83 89.76 C 129.04 93.34 129.03 96.93 129.01 100.52 C 125.62 97.10 120.97 95.56 116.98 93.01 C 109.19 88.24 101.21 83.74 93.58 78.70 Z"></path><path d=" M 85.96 87.20 C 87.14 85.57 88.76 83.98 90.98 84.52 C 96.33 85.40 100.57 89.12 105.04 91.92 C 112.18 96.50 119.68 100.46 127.12 104.51 C 127.59 103.96 128.53 102.86 129.00 102.30 C 129.00 123.07 128.99 143.84 129.01 164.60 C 126.37 162.19 123.07 160.76 120.01 158.99 C 98.15 146.37 76.33 133.68 54.73 120.62 C 55.54 119.29 56.36 117.97 57.19 116.65 C 58.94 117.22 60.69 117.83 62.28 118.76 C 83.75 131.69 105.58 143.99 127.45 156.21 C 127.71 154.41 128.34 152.41 127.17 150.78 C 124.66 146.79 119.87 145.38 115.97 143.16 C 97.97 132.96 79.98 122.74 61.91 112.69 C 63.20 111.04 64.59 109.47 66.09 108.01 C 86.68 119.82 106.86 132.40 128.05 143.13 C 128.25 141.01 128.70 138.59 126.94 136.96 C 123.86 133.69 119.17 132.85 115.42 130.59 C 100.15 121.77 84.92 112.87 69.78 103.83 C 71.08 102.58 72.41 101.37 73.78 100.20 C 92.30 109.32 109.17 121.49 127.96 130.09 C 129.30 127.00 127.49 123.80 124.74 122.27 C 115.50 117.15 106.25 112.04 97.00 106.94 C 90.58 103.13 83.84 99.79 77.93 95.17 C 79.18 93.89 80.46 92.66 81.77 91.45 C 97.02 100.15 112.13 109.11 127.42 117.73 C 129.24 115.42 128.96 112.17 126.24 110.73 C 113.10 102.42 98.75 96.09 85.96 87.20 Z"></path><path d=" M 46.58 128.64 C 47.89 127.28 49.25 125.97 50.66 124.71 C 75.66 140.17 101.87 153.57 126.80 169.16 C 127.53 168.30 128.27 167.44 129.00 166.58 C 128.99 177.49 129.01 188.40 128.99 199.31 C 96.52 181.08 63.75 163.34 31.61 144.49 C 32.50 143.62 33.39 142.75 34.28 141.87 C 58.42 154.21 81.28 168.84 104.97 182.01 C 112.67 186.42 120.15 191.42 128.63 194.24 C 128.91 191.81 128.56 189.09 126.31 187.66 C 96.78 171.55 68.04 153.97 38.57 137.72 C 39.37 136.43 40.13 135.10 41.19 134.00 C 45.49 133.46 48.88 136.77 52.44 138.64 C 77.53 152.86 102.08 168.02 127.45 181.76 C 127.92 180.30 129.24 178.77 128.44 177.19 C 127.28 175.47 125.53 174.30 123.81 173.23 C 98.21 158.11 71.49 144.90 46.58 128.64 Z"></path></g>
</svg>
