<svg width="256" height="256" xmlns="http://www.w3.org/2000/svg">
    <path fill="#ff0000" d=" M 103.67 102.87 C 111.93 88.33 119.83 73.57 128.16 59.07 C 136.43 73.98 144.49 89.00 152.75 103.92 C 169.50 107.42 186.39 110.28 203.09 113.96 C 191.18 126.14 179.74 138.77 167.88 151.00 C 169.97 168.04 171.95 185.09 174.14 202.11 C 158.76 194.55 143.15 187.46 127.69 180.04 C 112.19 187.30 96.76 194.77 81.04 201.55 C 83.85 184.94 85.23 168.07 87.88 151.43 C 83.51 145.45 77.79 140.66 73.03 135.01 C 66.25 127.73 59.41 120.51 52.76 113.12 C 68.53 110.67 84.16 107.25 99.89 104.48 C 101.17 104.07 102.97 104.26 103.67 102.87 Z"></path>
    <path fill="#00ff00" d=" M 95.65 93.69 C 106.62 74.28 117.35 54.73 128.16 35.23 C 138.89 54.74 149.57 74.27 160.24 93.81 C 182.00 97.95 203.71 102.36 225.47 106.47 C 223.78 109.06 221.35 111.02 219.28 113.28 C 206.18 127.20 193.15 141.19 179.91 154.98 C 182.62 177.09 185.25 199.22 188.08 221.32 C 167.95 211.85 147.89 202.24 127.74 192.82 C 107.54 202.08 87.51 211.71 67.21 220.74 C 70.19 198.89 72.71 176.97 75.78 155.13 C 60.98 138.48 45.29 122.63 30.49 105.97 C 52.20 101.83 73.91 97.65 95.65 93.69 M 103.67 102.87 C 102.97 104.26 101.17 104.07 99.89 104.48 C 84.16 107.25 68.53 110.67 52.76 113.12 C 59.41 120.51 66.25 127.73 73.03 135.01 C 77.79 140.66 83.51 145.45 87.88 151.43 C 85.23 168.07 83.85 184.94 81.04 201.55 C 96.76 194.77 112.19 187.30 127.69 180.04 C 143.15 187.46 158.76 194.55 174.14 202.11 C 171.95 185.09 169.97 168.04 167.88 151.00 C 179.74 138.77 191.18 126.14 203.09 113.96 C 186.39 110.28 169.50 107.42 152.75 103.92 C 144.49 89.00 136.43 73.98 128.16 59.07 C 119.83 73.57 111.93 88.33 103.67 102.87 Z"></path>
</svg>
