<svg width="256" height="256" xmlns="http://www.w3.org/2000/svg">
    <g fill="#ff0000"><path d=" M 138.09 62.86 C 134.63 58.98 133.64 51.73 138.25 48.34 C 141.71 46.72 142.23 50.74 143.02 53.06 C 144.13 56.57 143.55 60.33 142.11 63.65 C 140.75 63.46 139.41 63.20 138.09 62.86 Z"></path><path d=" M 112.88 61.40 C 112.08 56.83 112.01 52.05 114.64 48.02 C 120.00 49.95 118.75 57.32 117.05 61.53 L 117.04 61.54 L 115.86 62.82 C 115.11 62.46 113.62 61.75 112.88 61.40 Z"></path><path d=" M 117.97 69.89 C 124.07 67.91 130.84 68.18 137.01 69.74 C 136.08 72.19 136.26 76.33 132.79 76.63 C 129.18 77.00 125.53 76.89 121.91 76.65 C 118.67 76.14 118.63 72.37 117.97 69.89 Z"></path><path d=" M 100.34 78.80 C 104.43 74.14 110.79 72.86 116.18 70.31 C 116.80 72.68 119.63 75.26 117.65 77.61 C 115.08 79.04 112.25 80.00 109.89 81.80 C 108.65 82.88 106.95 82.67 105.44 82.76 L 105.60 84.30 C 103.16 83.24 102.10 80.63 100.34 78.80 Z"></path><path d=" M 138.81 70.35 C 144.22 72.84 150.56 74.17 154.66 78.80 C 152.86 80.57 151.64 82.90 149.50 84.30 L 149.32 82.77 C 145.93 83.27 143.71 80.47 140.76 79.38 C 138.80 78.59 136.79 77.61 136.20 75.38 C 137.10 73.72 137.96 72.03 138.81 70.35 Z"></path><path d=" M 113.30 80.53 C 119.22 77.14 126.34 77.35 132.92 77.85 C 136.67 78.30 141.05 79.19 143.09 82.74 C 139.40 87.75 136.39 93.49 131.40 97.36 C 135.15 98.37 137.32 101.87 138.78 105.20 C 139.21 108.75 137.10 111.92 135.85 115.09 C 131.28 117.27 125.96 116.55 121.11 115.99 C 118.34 115.25 117.77 112.10 116.72 109.85 C 114.35 104.67 118.82 99.32 123.32 97.14 C 119.39 94.86 117.68 90.48 114.81 87.18 C 113.47 85.20 110.64 82.69 113.30 80.53 Z"></path><path d=" M 88.35 90.01 C 91.67 86.38 95.22 82.95 99.00 79.80 C 100.41 81.66 101.82 83.52 103.12 85.47 C 100.58 88.60 97.86 91.58 95.14 94.54 C 92.96 92.90 90.53 91.64 88.35 90.01 Z"></path><path d=" M 151.75 85.67 C 153.02 83.59 154.43 81.62 155.93 79.70 C 159.51 83.07 163.24 86.29 166.53 89.97 C 164.30 91.51 162.01 92.94 159.76 94.43 C 157.07 91.52 154.31 88.69 151.75 85.67 Z"></path><path d=" M 106.16 83.63 C 107.48 83.60 108.80 83.54 110.12 83.47 C 113.36 88.20 118.31 91.61 120.62 96.98 C 118.48 99.06 116.80 101.54 115.03 103.92 C 108.54 102.48 102.33 99.72 95.61 99.19 C 97.12 92.83 102.60 88.79 106.16 83.63 Z"></path><path d=" M 134.28 96.85 C 136.65 91.57 141.43 88.13 144.69 83.48 C 146.07 83.55 147.45 83.58 148.83 83.60 C 152.06 88.93 157.93 92.76 159.04 99.24 C 152.77 99.84 146.83 101.93 140.92 103.94 C 137.74 102.83 136.75 98.94 134.28 96.85 Z"></path><path d=" M 77.52 111.73 C 79.20 104.36 83.49 97.97 87.90 91.97 C 90.15 93.65 94.45 93.78 94.95 97.01 C 93.28 102.26 90.23 106.99 88.73 112.32 C 84.96 113.07 81.29 111.65 77.52 111.73 Z"></path><path d=" M 160.44 95.35 C 162.42 93.95 164.75 93.14 166.89 92.01 C 171.05 98.13 175.90 104.24 177.48 111.63 C 173.70 111.70 170.00 112.77 166.21 112.54 C 164.86 108.51 163.31 104.54 161.33 100.77 C 160.66 99.11 159.23 97.09 160.44 95.35 Z"></path><path d=" M 91.06 110.06 C 92.02 106.74 92.32 102.24 96.05 100.80 C 100.90 100.20 105.41 102.37 109.85 103.97 C 115.57 105.44 116.85 112.15 118.15 117.08 C 116.21 121.52 112.07 124.44 108.82 127.87 C 102.69 127.52 96.49 129.23 90.48 127.47 C 89.58 121.69 89.39 115.73 91.06 110.06 Z"></path><path d=" M 143.52 104.58 C 148.53 102.83 153.57 99.98 159.07 100.92 C 160.42 101.53 161.56 102.73 162.15 104.09 C 164.50 111.59 166.23 119.65 164.26 127.44 C 158.36 129.27 152.27 127.53 146.25 127.89 C 143.12 125.29 140.24 122.38 137.73 119.19 C 135.75 116.86 137.59 113.84 138.34 111.41 C 139.54 108.86 140.48 105.50 143.52 104.58 Z"></path><path d=" M 75.51 126.14 C 76.22 121.66 75.37 116.61 77.66 112.58 C 81.36 112.56 85.68 112.45 88.74 114.83 C 87.96 120.58 89.00 126.37 88.51 132.14 C 84.56 133.30 80.36 134.43 76.24 133.71 C 74.24 131.73 75.72 128.61 75.51 126.14 Z"></path><path d=" M 166.41 114.48 C 169.52 112.13 173.67 112.82 177.31 112.44 C 177.57 112.89 178.08 113.79 178.34 114.24 C 178.93 119.84 179.27 125.47 179.68 131.09 C 179.95 132.58 178.61 134.43 176.99 134.09 C 173.76 133.85 170.43 133.59 167.38 132.45 C 165.51 131.33 166.30 128.89 166.21 127.12 C 166.52 122.91 166.17 118.66 166.41 114.48 Z"></path><path d=" M 58.24 114.03 C 61.03 113.58 61.11 117.31 62.20 119.03 C 62.96 121.02 63.95 122.90 64.83 124.83 C 64.18 125.31 62.86 126.26 62.20 126.73 C 60.15 124.84 57.75 123.40 55.56 121.69 C 54.49 120.60 53.56 119.40 52.63 118.19 C 54.43 116.72 56.14 115.08 58.24 114.03 Z"></path><path d=" M 63.31 115.01 C 64.11 114.59 65.73 113.73 66.54 113.30 C 67.80 115.01 69.56 116.71 69.49 119.00 C 68.94 120.44 67.83 121.53 66.88 122.70 C 66.40 122.47 65.45 122.03 64.97 121.80 C 64.08 119.63 63.14 117.42 63.31 115.01 Z"></path><path d=" M 187.91 113.64 C 188.58 113.72 189.91 113.86 190.58 113.94 L 191.25 114.16 C 192.33 117.26 190.64 120.26 189.20 122.93 C 187.29 122.35 185.86 120.81 185.30 118.91 C 185.25 116.84 186.86 115.27 187.91 113.64 Z"></path><path d=" M 193.88 116.28 C 194.32 115.61 195.20 114.29 195.63 113.62 C 197.98 114.80 200.10 116.37 202.01 118.17 C 200.38 122.35 195.73 123.62 192.83 126.69 C 192.14 126.27 190.75 125.42 190.06 125.00 C 190.83 123.27 191.64 121.56 192.41 119.83 C 192.92 118.65 193.40 117.46 193.88 116.28 Z"></path><path d=" M 118.68 118.58 C 120.73 116.06 124.31 117.46 127.07 117.14 C 130.13 117.54 134.00 115.96 136.32 118.68 C 139.07 121.70 141.62 124.90 144.25 128.02 C 142.47 131.56 139.55 134.30 137.39 137.59 C 136.62 138.50 136.12 139.77 134.93 140.21 C 129.82 141.01 124.55 140.96 119.45 140.14 C 116.49 136.17 113.23 132.40 110.61 128.20 C 113.10 124.83 115.86 121.67 118.68 118.58 Z"></path><path d=" M 200.17 125.39 C 201.52 123.56 201.76 120.59 204.19 119.82 L 204.64 119.92 C 206.88 121.34 209.20 123.14 208.12 126.13 C 207.38 126.79 206.66 127.47 205.96 128.18 C 205.68 128.42 205.13 128.91 204.85 129.16 C 204.70 129.26 204.40 129.47 204.25 129.58 C 203.65 129.92 202.44 130.62 201.84 130.97 C 200.93 131.46 200.01 131.94 199.08 132.40 C 195.83 130.46 199.10 127.59 200.17 125.39 Z"></path><path d=" M 46.44 123.94 C 46.70 121.42 49.58 120.87 51.32 119.67 C 51.89 120.54 52.44 121.41 52.99 122.30 C 54.53 125.09 56.19 127.80 57.78 130.57 C 56.98 131.11 56.17 131.65 55.36 132.19 C 53.91 131.34 52.46 130.48 50.99 129.66 L 50.69 129.48 L 50.54 129.39 L 50.39 129.27 C 48.72 127.83 46.33 126.49 46.44 123.94 Z"></path><path d=" M 40.69 131.78 C 41.94 130.12 43.31 128.55 44.92 127.24 C 47.06 129.68 49.20 132.17 51.84 134.10 C 51.84 134.68 51.84 135.85 51.84 136.43 C 51.18 136.64 49.84 137.06 49.17 137.27 C 47.23 135.42 44.62 134.77 42.21 133.79 C 41.83 133.29 41.07 132.28 40.69 131.78 Z"></path><path d=" M 203.03 135.06 C 205.09 132.31 207.64 129.99 210.00 127.50 C 212.06 128.52 213.67 130.21 214.24 132.48 C 211.90 134.30 209.00 135.09 206.46 136.57 C 206.02 136.82 205.14 137.34 204.70 137.59 C 204.02 136.81 203.47 135.97 203.03 135.06 Z"></path><path d=" M 90.85 128.60 C 93.95 128.46 96.85 129.73 99.92 129.83 C 103.03 129.97 106.14 129.67 109.24 129.49 C 112.58 133.05 116.19 136.67 118.29 141.11 C 116.90 144.52 115.49 148.26 112.71 150.78 C 107.82 153.50 102.56 155.51 97.42 157.70 C 96.29 156.43 95.02 155.21 94.36 153.61 C 92.03 148.27 90.18 142.72 89.05 137.00 C 88.45 134.07 89.61 131.19 90.85 128.60 Z"></path><path d=" M 145.76 129.48 C 151.18 130.02 156.73 130.21 161.98 128.55 C 164.17 128.01 164.91 130.47 165.41 132.08 C 166.75 136.61 164.76 141.16 163.60 145.49 C 162.02 149.74 160.90 154.46 157.50 157.69 C 152.15 155.44 146.59 153.47 141.63 150.40 C 139.49 147.95 138.11 144.91 136.92 141.91 C 136.30 140.55 137.31 139.16 138.15 138.16 C 140.63 135.22 142.69 131.87 145.76 129.48 Z"></path><path d=" M 166.53 134.68 C 170.62 133.35 174.88 135.08 178.89 135.99 C 179.08 138.45 179.62 141.07 178.52 143.41 C 176.51 147.99 175.56 152.96 173.26 157.42 C 170.27 154.73 166.38 153.49 163.19 151.11 C 164.06 145.59 167.40 140.41 166.53 134.68 Z"></path><path d=" M 76.19 136.08 C 79.92 134.55 84.03 134.01 88.04 134.20 C 87.81 140.09 90.50 145.45 91.60 151.11 C 88.43 153.54 84.61 154.91 81.42 157.33 C 79.43 152.81 78.20 148.01 76.35 143.44 C 75.36 141.11 75.45 138.46 76.19 136.08 Z"></path><path d=" M 37.09 138.84 C 37.40 137.10 39.20 136.19 40.21 134.90 C 42.43 136.55 44.29 138.63 45.82 140.93 C 45.33 141.41 44.35 142.36 43.86 142.83 C 43.33 142.72 42.29 142.50 41.76 142.39 C 41.46 142.19 40.86 141.77 40.56 141.56 C 39.26 140.85 37.89 140.15 37.09 138.84 Z"></path><path d=" M 213.73 135.45 C 215.51 134.99 216.89 136.82 217.66 138.17 C 218.11 140.26 215.64 140.75 214.29 141.52 C 213.96 141.70 213.30 142.05 212.97 142.23 C 212.54 142.40 211.68 142.74 211.25 142.91 C 210.54 142.23 209.82 141.54 209.11 140.86 C 209.25 140.60 209.52 140.09 209.66 139.83 L 209.90 139.38 C 211.18 138.07 212.35 136.65 213.73 135.45 Z"></path><path d=" M 120.04 140.85 C 124.98 140.88 129.93 141.24 134.87 140.70 C 137.50 144.43 140.62 148.27 141.00 152.99 C 139.14 156.32 136.71 159.48 133.84 162.02 C 129.69 162.95 125.10 162.93 120.94 162.02 C 118.27 159.33 115.61 156.48 113.83 153.11 C 114.43 148.42 117.11 144.42 120.04 140.85 Z"></path><path d=" M 38.73 146.45 C 37.15 145.04 34.77 142.73 37.77 141.37 C 38.19 141.84 39.03 142.77 39.44 143.24 C 39.72 143.49 40.26 144.00 40.53 144.25 C 41.05 145.68 40.28 146.94 38.73 146.45 Z"></path><path d=" M 215.43 143.09 C 216.22 142.06 217.23 141.68 218.48 141.95 C 218.98 144.53 216.60 146.17 214.42 146.77 C 214.39 146.09 214.32 144.73 214.29 144.05 C 214.58 143.81 215.15 143.33 215.43 143.09 Z"></path><path d=" M 30.58 148.84 C 31.80 147.59 32.78 146.15 33.89 144.81 C 35.09 145.49 36.29 146.18 37.49 146.86 C 36.73 149.40 33.90 151.55 32.36 147.61 C 32.61 148.58 33.09 150.52 33.33 151.50 L 31.68 150.69 C 31.56 150.56 31.31 150.28 31.19 150.14 L 30.58 148.84 Z"></path><path d=" M 217.29 146.84 C 218.44 146.17 219.60 145.53 220.78 144.91 C 221.32 145.36 222.41 146.26 222.96 146.72 C 222.47 147.52 221.49 149.12 221.00 149.92 C 219.00 149.97 218.13 148.37 217.29 146.84 Z"></path><path d=" M 223.14 148.05 C 224.69 148.21 223.77 150.61 222.66 150.82 C 221.14 150.66 222.04 148.26 223.14 148.05 Z"></path><path d=" M 82.36 157.94 C 85.43 156.59 87.84 153.99 90.99 152.90 C 92.80 152.40 93.71 154.16 94.63 155.34 C 96.29 157.69 97.26 160.41 98.09 163.13 C 95.21 165.84 91.30 166.87 88.19 169.25 C 85.50 166.09 81.64 162.44 82.36 157.94 Z"></path><path d=" M 99.24 158.27 C 103.36 156.60 107.27 153.62 111.71 153.16 C 114.71 156.24 119.06 159.33 119.44 163.87 C 117.30 169.02 115.00 174.14 112.11 178.91 C 107.34 176.50 104.19 171.90 101.18 167.65 C 99.48 164.86 96.31 161.38 99.24 158.27 Z"></path><path d=" M 135.35 163.10 C 136.77 158.80 140.46 155.52 143.91 152.70 C 147.74 154.80 151.92 156.21 155.69 158.40 C 156.31 159.25 156.78 160.19 157.30 161.10 C 158.69 158.15 159.92 154.24 163.05 152.85 C 166.75 153.61 169.67 156.54 172.82 158.55 C 172.53 162.81 169.36 166.17 166.65 169.22 C 164.29 168.04 162.26 165.66 159.54 165.52 C 161.62 167.48 164.00 169.07 166.37 170.65 C 164.50 174.60 161.75 178.17 158.08 180.59 C 155.72 178.47 153.37 176.34 151.27 173.96 C 153.06 170.38 154.92 166.45 158.52 164.35 C 157.83 163.78 157.14 163.21 156.46 162.63 C 154.07 167.81 150.54 172.45 146.44 176.40 C 145.40 177.26 144.43 178.48 142.98 178.60 C 140.88 177.01 140.25 174.23 139.04 172.00 C 137.91 169.00 135.94 166.26 135.35 163.10 Z"></path><path d=" M 120.99 164.14 C 125.17 162.85 129.71 162.93 133.90 164.16 C 136.15 170.17 139.32 175.80 141.26 181.93 C 137.32 187.19 130.90 191.45 124.09 190.05 C 120.00 188.23 116.34 185.50 113.56 181.98 C 115.51 175.83 118.73 170.18 120.99 164.14 Z"></path><path d=" M 97.08 164.39 C 99.82 167.14 102.08 170.34 103.56 173.94 C 101.50 176.26 99.26 178.44 96.86 180.42 C 92.93 178.25 89.87 174.50 88.68 170.15 C 91.96 168.95 94.14 166.13 97.08 164.39 Z"></path><path d=" M 97.53 181.55 C 100.05 178.95 102.35 175.90 105.83 174.52 C 108.62 177.72 112.40 180.34 113.61 184.63 C 111.08 186.92 109.72 190.17 107.71 192.88 C 107.22 192.71 106.23 192.35 105.73 192.17 L 105.16 191.85 L 104.66 191.42 L 104.17 191.02 C 101.57 188.17 98.31 185.54 97.53 181.55 Z"></path><path d=" M 149.10 174.47 C 152.56 176.02 154.92 179.07 157.47 181.76 C 155.60 186.51 152.12 190.77 147.48 193.02 C 145.18 190.22 143.43 187.01 141.05 184.26 C 142.87 180.34 146.14 177.51 149.10 174.47 Z"></path><path d=" M 113.93 185.43 C 116.89 186.98 119.81 188.69 122.22 191.04 C 122.21 194.14 120.78 197.13 119.23 199.76 C 115.62 198.31 112.53 196.08 109.32 193.95 C 110.00 190.72 111.87 187.93 113.93 185.43 Z"></path><path d=" M 132.58 190.93 C 135.20 188.69 138.11 186.88 141.16 185.30 C 142.93 187.99 144.61 190.79 145.57 193.89 C 142.52 196.23 139.29 198.23 135.76 199.77 C 133.74 197.27 133.08 194.02 132.58 190.93 Z"></path><path d=" M 123.38 191.23 C 125.91 191.01 128.47 191.19 130.99 190.75 C 132.59 193.54 133.82 196.62 134.51 199.75 C 132.49 202.47 128.94 204.57 125.45 203.67 C 123.57 202.60 121.79 201.36 120.10 200.03 C 121.16 197.08 122.16 194.11 123.38 191.23 Z"></path><path d=" M 95.29 195.89 C 96.62 196.11 97.98 196.39 99.06 197.28 C 99.28 197.53 99.73 198.04 99.96 198.29 C 99.69 199.48 99.43 200.67 99.18 201.87 C 98.06 202.45 96.93 203.02 95.81 203.58 C 94.12 201.20 94.14 198.49 95.29 195.89 Z"></path><path d=" M 155.42 201.74 C 154.08 198.62 156.84 195.10 160.20 196.06 C 160.92 198.65 160.72 201.27 159.22 203.57 C 157.94 202.97 156.68 202.36 155.42 201.74 Z"></path><path d=" M 85.85 199.17 C 87.23 198.51 88.61 197.66 90.21 197.79 L 90.87 198.08 C 92.83 200.92 94.24 205.75 90.78 208.07 C 87.81 205.98 85.17 203.10 85.85 199.17 Z"></path><path d=" M 163.23 199.10 C 164.75 198.43 166.77 197.21 168.16 198.82 C 170.01 200.58 168.56 203.23 168.32 205.33 C 166.84 205.98 165.45 206.79 164.04 207.56 C 160.37 206.47 162.26 201.63 163.23 199.10 Z"></path><path d=" M 78.98 200.54 C 82.76 202.15 84.85 206.00 85.65 209.86 C 84.14 212.26 81.62 213.27 78.87 213.38 C 75.97 209.50 76.56 204.49 78.98 200.54 Z"></path><path d=" M 170.83 205.22 C 172.15 203.63 173.60 200.62 175.99 201.24 C 179.00 204.79 178.18 209.58 176.09 213.34 C 173.37 213.18 170.67 212.46 169.21 209.94 C 169.46 209.09 169.96 207.37 170.21 206.51 C 170.37 206.19 170.68 205.54 170.83 205.22 Z"></path><path d=" M 71.06 203.99 C 71.19 203.82 71.44 203.48 71.57 203.31 C 73.11 201.69 75.21 202.80 75.37 204.81 C 75.84 206.77 75.76 208.80 75.97 210.80 L 76.01 211.30 C 75.02 211.93 74.01 212.52 72.97 213.06 C 70.04 211.16 69.57 206.94 71.06 203.99 Z"></path><path d=" M 180.10 203.06 C 180.85 202.98 182.35 202.82 183.10 202.74 C 183.72 203.75 184.34 204.76 184.96 205.78 C 184.44 208.16 184.14 214.16 180.47 212.53 C 177.90 210.09 179.47 206.04 180.10 203.06 Z"></path></g><g fill="#00ff00"><path d=" M 119.62 38.67 C 121.79 36.62 123.87 34.48 125.83 32.24 C 128.37 34.70 131.24 36.80 133.67 39.37 C 135.77 41.89 137.29 44.82 139.20 47.47 L 138.25 48.34 C 133.64 51.73 134.63 58.98 138.09 62.86 L 138.86 63.91 C 137.97 65.00 137.08 66.10 136.20 67.21 C 132.33 67.24 128.46 67.55 124.60 67.30 C 126.13 65.30 128.85 65.53 131.03 64.79 C 128.63 64.93 126.02 64.89 123.96 66.32 C 120.55 66.20 117.22 66.92 113.99 67.91 C 113.92 66.62 113.86 65.34 113.80 64.05 C 114.68 63.58 115.56 63.10 116.44 62.62 L 117.04 61.54 L 117.05 61.53 C 119.77 58.69 119.41 54.47 118.61 50.92 C 118.37 49.12 116.52 48.54 115.20 47.72 C 116.83 44.77 116.90 40.94 119.62 38.67 Z"></path><path d=" M 136.56 67.18 C 138.01 65.95 139.46 64.72 141.06 63.67 C 141.06 65.22 141.05 66.76 141.03 68.30 C 139.54 67.92 138.05 67.54 136.56 67.18 Z"></path><path d=" M 66.44 92.55 C 70.15 91.91 73.66 90.55 76.79 88.45 C 79.75 89.18 83.99 88.71 85.44 92.08 C 85.09 93.62 83.88 94.74 83.11 96.07 C 79.35 102.15 77.17 109.01 74.41 115.56 C 73.80 117.39 71.95 117.37 70.35 117.19 C 69.54 115.79 68.84 114.24 67.58 113.18 C 66.09 112.71 64.69 113.91 63.27 114.26 C 62.93 115.85 62.58 117.45 62.20 119.03 C 61.11 117.31 61.03 113.58 58.24 114.03 C 56.14 115.08 54.43 116.72 52.63 118.19 C 53.56 119.40 54.49 120.60 55.56 121.69 C 54.70 121.89 53.84 122.10 52.99 122.30 C 52.44 121.41 51.89 120.54 51.32 119.67 C 49.58 120.87 46.70 121.42 46.44 123.94 C 46.33 126.49 48.72 127.83 50.39 129.27 L 50.53 129.39 L 50.69 129.48 L 50.99 129.66 C 53.13 130.57 53.94 132.18 53.42 134.51 C 53.02 134.40 52.23 134.20 51.84 134.10 C 49.20 132.17 47.06 129.68 44.92 127.24 C 43.31 128.55 41.94 130.12 40.69 131.78 C 41.07 132.28 41.83 133.29 42.21 133.79 L 42.92 134.74 C 44.64 135.42 46.38 136.05 48.11 136.69 C 47.59 137.41 46.55 138.87 46.03 139.60 C 43.95 137.89 42.19 133.60 39.02 135.15 C 37.35 136.25 35.35 138.53 37.02 140.52 C 36.32 141.90 35.71 143.32 35.71 144.90 C 34.34 144.50 33.00 144.97 31.68 145.25 C 31.21 146.57 30.74 147.88 30.29 149.20 L 31.19 150.14 C 31.31 150.28 31.56 150.56 31.68 150.69 C 32.59 153.36 29.43 152.51 28.16 151.75 C 27.18 150.26 26.59 148.56 25.82 146.95 C 27.01 142.38 29.36 138.25 30.78 133.75 C 33.94 124.17 42.13 117.61 47.27 109.20 C 49.43 105.49 53.14 103.16 55.90 99.97 C 58.52 96.39 62.92 95.03 66.44 92.55 Z"></path><path d=" M 168.98 92.34 C 170.98 89.16 174.80 88.92 178.17 88.49 C 181.30 90.61 184.85 91.84 188.51 92.60 C 191.76 95.03 196.00 96.14 198.51 99.48 C 201.12 102.81 205.02 104.93 207.24 108.59 C 211.46 115.59 217.44 121.34 221.73 128.30 C 223.61 131.69 224.48 135.51 226.09 139.02 C 227.11 141.58 228.55 144.06 228.83 146.85 C 228.29 148.59 227.55 150.26 226.91 151.96 C 225.85 152.07 223.74 152.29 222.69 152.39 C 226.11 149.37 223.42 143.27 218.82 144.73 C 219.13 143.12 218.84 141.66 217.63 140.55 C 219.79 137.63 215.20 132.96 212.44 135.58 C 211.16 136.49 210.60 138.03 209.90 139.38 L 209.66 139.83 C 208.55 138.78 207.48 137.70 206.46 136.57 C 209.00 135.09 211.90 134.30 214.24 132.48 L 215.11 131.87 C 214.09 130.39 213.29 128.50 211.48 127.83 C 210.60 127.19 208.95 127.07 208.88 125.70 C 209.92 122.80 207.39 120.21 204.64 119.92 L 204.19 119.82 C 203.77 119.74 202.95 119.58 202.54 119.50 C 202.36 116.14 198.65 114.27 195.75 113.59 C 193.98 112.77 194.47 115.38 193.88 116.28 C 193.40 117.46 192.92 118.65 192.41 119.83 C 192.29 118.02 192.14 116.22 192.00 114.41 L 191.25 114.16 L 190.58 113.94 C 189.42 113.72 187.63 112.17 186.81 113.81 C 185.82 114.93 184.99 116.17 184.00 117.29 C 182.50 117.60 180.75 117.10 180.35 115.46 C 177.25 107.47 174.63 98.98 168.98 92.34 Z"></path><path d=" M 54.55 124.10 C 55.04 123.59 55.53 123.08 56.03 122.58 C 57.53 124.03 59.15 125.35 60.79 126.66 C 60.04 127.22 58.54 128.34 57.79 128.90 C 56.75 127.27 55.69 125.66 54.55 124.10 Z"></path><path d=" M 194.16 126.78 C 196.55 124.55 199.22 122.66 201.91 120.82 C 200.43 123.58 198.87 126.29 197.21 128.95 C 196.45 128.41 194.93 127.32 194.16 126.78 Z"></path><path d=" M 205.96 128.18 C 206.43 128.30 207.36 128.54 207.82 128.66 C 206.06 130.33 204.38 132.09 202.78 133.93 C 202.35 133.48 201.49 132.59 201.06 132.14 L 201.84 130.97 C 202.44 130.62 203.65 129.92 204.25 129.58 L 204.58 129.41 L 204.85 129.16 C 205.13 128.91 205.68 128.42 205.96 128.18 Z"></path><path d=" M 39.44 143.24 C 39.72 142.82 40.28 141.98 40.56 141.56 C 40.86 141.77 41.46 142.19 41.76 142.39 C 41.46 142.86 40.84 143.79 40.53 144.25 C 40.26 144.00 39.72 143.49 39.44 143.24 Z"></path><path d=" M 212.97 142.23 C 213.30 142.05 213.96 141.70 214.29 141.52 C 214.58 141.91 215.15 142.69 215.43 143.09 C 215.15 143.33 214.58 143.81 214.29 144.05 C 213.96 143.59 213.30 142.69 212.97 142.23 Z"></path><path d=" M 79.55 177.67 C 81.66 175.66 83.83 173.19 86.94 172.96 C 92.69 178.96 97.72 185.61 103.64 191.45 C 104.02 191.55 104.78 191.75 105.16 191.85 L 105.73 192.17 C 106.17 192.85 106.42 193.60 106.48 194.41 C 103.95 195.12 101.44 195.97 99.96 198.29 C 99.73 198.04 99.28 197.53 99.06 197.28 L 98.31 196.41 C 97.45 195.90 96.59 195.40 95.73 194.91 C 93.88 196.73 94.03 199.41 93.90 201.81 C 93.15 200.80 92.57 199.72 92.14 198.54 C 91.83 198.43 91.19 198.20 90.87 198.08 L 90.21 197.79 C 89.95 197.58 89.42 197.16 89.16 196.95 C 87.81 197.75 85.54 197.96 85.39 199.93 C 85.01 202.45 86.52 204.77 87.07 207.16 C 83.76 205.95 83.24 201.39 79.78 200.13 C 77.25 200.69 77.16 203.81 76.58 205.75 C 75.99 204.52 75.39 203.30 74.79 202.07 C 74.19 202.10 72.98 202.15 72.37 202.17 L 71.57 203.31 C 71.44 203.48 71.19 203.82 71.06 203.99 C 70.56 204.52 69.55 205.59 69.04 206.13 C 66.77 199.74 69.55 193.08 72.18 187.28 C 73.66 183.41 76.79 180.62 79.55 177.67 Z"></path><path d=" M 166.97 174.05 C 167.70 172.64 169.29 172.95 170.43 173.64 C 179.81 180.01 186.31 190.61 186.74 202.06 C 186.56 203.41 186.29 204.75 185.94 206.07 C 184.46 204.37 182.98 200.71 180.13 202.47 C 179.75 203.19 178.99 204.64 178.61 205.36 C 177.90 203.66 177.18 201.99 176.43 200.32 C 173.66 200.61 171.47 202.48 170.83 205.22 C 170.68 205.54 170.37 206.19 170.21 206.51 C 169.72 206.65 168.72 206.93 168.22 207.07 C 168.87 204.12 171.34 200.24 168.11 197.97 C 164.91 196.13 162.47 199.25 160.92 201.62 C 160.97 199.16 161.40 196.39 159.18 194.71 C 157.53 195.76 155.89 196.83 154.25 197.90 C 153.05 195.56 150.58 195.00 148.26 194.41 C 154.84 187.95 161.08 181.14 166.97 174.05 Z"></path><path d=" M 127.23 212.46 C 127.33 210.24 124.71 206.06 128.07 205.55 C 130.71 207.14 128.59 210.65 127.23 212.46 Z"></path><path d=" M 177.98 210.34 C 181.30 210.49 176.35 213.31 177.98 210.34 Z"></path><path d=" M 75.97 210.80 C 75.98 210.92 76.00 211.17 76.01 211.30 L 75.97 210.80 Z"></path></g>
</svg>
